<?xml version="1.0" encoding="UTF-8" standalone="no"?>
<!-- Created with Inkscape (http://www.inkscape.org/) -->

<svg
   xmlns:dc="http://purl.org/dc/elements/1.1/"
   xmlns:cc="http://creativecommons.org/ns#"
   xmlns:rdf="http://www.w3.org/1999/02/22-rdf-syntax-ns#"
   xmlns:svg="http://www.w3.org/2000/svg"
   xmlns="http://www.w3.org/2000/svg"
   xmlns:sodipodi="http://sodipodi.sourceforge.net/DTD/sodipodi-0.dtd"
   xmlns:inkscape="http://www.inkscape.org/namespaces/inkscape"
   width="700"
   height="400"
   viewBox="0 0 1360 768"
   version="1.1"
   id="SVGRoot"
   inkscape:version="0.92.3 (2405546, 2018-03-11)"
   sodipodi:docname="plogo1.svg">
  <sodipodi:namedview
     id="base"
     pagecolor="#ffffff"
     bordercolor="#666666"
     borderopacity="1.0"
     inkscape:pageopacity="0.0"
     inkscape:pageshadow="2"
     inkscape:zoom="0.73554688"
     inkscape:cx="551.3889"
     inkscape:cy="491.93544"
     inkscape:document-units="px"
     inkscape:current-layer="layer5"
     showgrid="false"
     inkscape:window-width="1360"
     inkscape:window-height="745"
     inkscape:window-x="-8"
     inkscape:window-y="-8"
     inkscape:window-maximized="1"
     inkscape:object-paths="false"
     inkscape:snap-smooth-nodes="false"
     inkscape:object-nodes="false"
     inkscape:measure-start="326.279,335.371"
     inkscape:measure-end="522.249,322.239" />
  <defs
     id="defs815" />
  <metadata
     id="metadata818">
    <rdf:RDF>
      <cc:Work
         rdf:about="">
        <dc:format>image/svg+xml</dc:format>
        <dc:type
           rdf:resource="http://purl.org/dc/dcmitype/StillImage" />
        <dc:title />
      </cc:Work>
    </rdf:RDF>
  </metadata>
  <g
     inkscape:groupmode="layer"
     id="layer5"
     inkscape:label="Layer 2"
     style="display:inline">
    <path
       inkscape:connector-curvature="0"
       style="display:inline;opacity:0.91399997;vector-effect:none;fill:#000000;fill-opacity:0.99215686;stroke:none;stroke-width:0.30000001;stroke-linecap:butt;stroke-linejoin:miter;stroke-miterlimit:4;stroke-dasharray:none;stroke-dashoffset:0;stroke-opacity:1"
       d="M 425.33364,113.07506 A 260.87995,256.62294 0 0 0 164.45281,369.69887 260.87995,256.62294 0 0 0 425.33364,626.3212 260.87995,256.62294 0 0 0 685.41812,385.32386 a 96.629681,322.35302 0 0 1 6.17412,-7.4556 96.629681,322.35302 0 0 1 9.35032,-8.08622 96.629681,322.35302 0 0 1 9.5456,-4.93158 96.629681,322.35302 0 0 1 9.64396,-1.72704 96.629681,322.35302 0 0 1 8.87837,1.43214 96.629681,322.35302 0 0 1 9.55788,4.63366 96.629681,322.35302 0 0 1 9.37339,7.79436 96.629681,322.35302 0 0 1 3.32381,3.97732 A 197.26961,194.05059 0 0 0 948.3913,571.0333 197.26961,194.05059 0 0 0 1145.6616,376.98358 197.26961,194.05059 0 0 0 948.3913,182.93236 197.26961,194.05059 0 0 0 752.40017,355.71319 102.83526,343.05458 0 0 0 719.57098,337.17552 102.83526,343.05458 0 0 0 685.75788,357.07577 260.87995,256.62294 0 0 0 425.33364,113.07506 Z"
       id="path1374" />
    <path
       style="display:inline;opacity:1;vector-effect:none;fill:#ffffff;fill-opacity:0.99215686;stroke:none;stroke-width:0.29999998;stroke-linecap:butt;stroke-linejoin:miter;stroke-miterlimit:4;stroke-dasharray:none;stroke-dashoffset:0;stroke-opacity:1"
       d="M 670.47034,369.69851 A 245.13719,241.13707 0 0 1 425.33315,610.8356 245.13719,241.13707 0 0 1 180.19596,369.69851 245.13719,241.13707 0 0 1 425.33315,128.56144 245.13719,241.13707 0 0 1 670.47034,369.69851 Z"
       id="circle1378"
       inkscape:connector-curvature="0" />
    <path
       style="display:inline;opacity:1;vector-effect:none;fill:#ff6600;fill-opacity:1;stroke:none;stroke-width:0.30000001;stroke-linecap:butt;stroke-linejoin:miter;stroke-miterlimit:4;stroke-dasharray:none;stroke-dashoffset:0;stroke-opacity:1"
       d="M 1127.7857,377.78002 A 180.50288,177.55745 0 0 1 947.28269,555.33757 180.50288,177.55745 0 0 1 766.77978,377.78002 180.50288,177.55745 0 0 1 947.28269,200.22257 180.50288,177.55745 0 0 1 1127.7857,377.78002 Z"
       id="path2490"
       inkscape:connector-curvature="0" />
    <path
       style="fill:#ff7f2a;fill-opacity:1;stroke:none;stroke-width:0.99999994px;stroke-linecap:butt;stroke-linejoin:miter;stroke-opacity:1"
       d="M 813.53885,280.43375 937.93945,374.53082 837.84897,248.52941 Z"
       id="path1770"
       inkscape:connector-curvature="0" />
    <path
       style="fill:#ff7f2a;fill-opacity:1;stroke:none;stroke-width:0.99999994px;stroke-linecap:butt;stroke-linejoin:miter;stroke-opacity:1"
       d="M 827.865,492.18714 814.82204,459.20339 930.91216,429.88068 920.42299,449.7301"
       id="path1772"
       inkscape:connector-curvature="0" />
    <path
       style="fill:#ff7f2a;fill-opacity:1;stroke:none;stroke-width:0.99999994px;stroke-linecap:butt;stroke-linejoin:miter;stroke-opacity:1"
       d="m 1104.2988,447.14428 -35.8494,37.69026 -109.18237,-53.99451 8.63496,-2.02128 20.05268,0.11822"
       id="path1774"
       inkscape:connector-curvature="0" />
    <path
       style="fill:#ff7f2a;fill-opacity:1;stroke:none;stroke-width:0.99999994px;stroke-linecap:butt;stroke-linejoin:miter;stroke-opacity:1"
       d="m 777.62534,433.86276 18.73193,-53.46972 141.58181,30.81003 -24.00756,20.04289"
       id="path1776"
       inkscape:connector-curvature="0" />
    <path
       style="fill:#ff7f2a;fill-opacity:1;stroke:none;stroke-width:0.99999994px;stroke-linecap:butt;stroke-linejoin:miter;stroke-opacity:1"
       d="m 1110.0312,386.21643 -8.1127,42.70079 -145.54665,-5.6388 29.68932,-4.1919"
       id="path1778"
       inkscape:connector-curvature="0" />
    <path
       style="fill:#ff7f2a;fill-opacity:1;stroke:none;stroke-width:0.99999994px;stroke-linecap:butt;stroke-linejoin:miter;stroke-opacity:1"
       d="m 809.68029,282.02948 -13.87601,30.31777 128.73811,68.76958 -25.43931,-31.05724"
       id="path1780"
       inkscape:connector-curvature="0" />
    <path
       style="fill:#ff7f2a;fill-opacity:1;stroke:none;stroke-width:0.99999994px;stroke-linecap:butt;stroke-linejoin:miter;stroke-opacity:1"
       d="m 1105.6339,316.24899 -38.0713,-27.96791 -104.46149,110.649 23.18665,-7.72561"
       id="path1782"
       inkscape:connector-curvature="0" />
    <path
       style="fill:#ff7f2a;fill-opacity:1;stroke:none;stroke-width:0.99999994px;stroke-linecap:butt;stroke-linejoin:miter;stroke-opacity:1"
       d="m 794.02892,316.21363 1.01637,58.881 134.12418,29.12346 -21.92238,-15.60264 -13.52144,4.91581 0.0858,-13.56957"
       id="path1786"
       inkscape:connector-curvature="0" />
    <path
       style="fill:#ff7f2a;fill-opacity:1;stroke:none;stroke-width:0.99999994px;stroke-linecap:butt;stroke-linejoin:miter;stroke-opacity:1"
       d="m 842.99949,238.71767 26.66707,-5.4287 75.14607,152.58922 -13.6939,-25.65794"
       id="path1788"
       inkscape:connector-curvature="0" />
    <path
       style="fill:#ff7f2a;fill-opacity:1;stroke:none;stroke-width:0.99999994px;stroke-linecap:butt;stroke-linejoin:miter;stroke-opacity:1"
       d="m 1038.2784,240.11757 20.3815,42.85681 -102.2043,104.80051 z"
       id="path1790"
       inkscape:connector-curvature="0" />
    <path
       inkscape:connector-curvature="0"
       id="path1820"
       d="m 876.00682,224.05268 27.2344,-0.92279 46.97402,162.79798 -8.9411,-27.55011"
       style="fill:#ff7f2a;fill-opacity:1;stroke:none;stroke-width:0.99999994px;stroke-linecap:butt;stroke-linejoin:miter;stroke-opacity:1" />
    <path
       inkscape:connector-curvature="0"
       id="path1822"
       d="m 1100.7323,336.15319 -7.1856,40.27601 -123.2718,38.91322 z"
       style="fill:#ff7f2a;fill-opacity:1;stroke:none;stroke-width:0.99999994px;stroke-linecap:butt;stroke-linejoin:miter;stroke-opacity:1" />
    <path
       style="fill:#ff7f2a;fill-opacity:1;stroke:none;stroke-width:0.99999994px;stroke-linecap:butt;stroke-linejoin:miter;stroke-opacity:1"
       d="m 979.47575,220.77007 18.13065,12.33515 -38.91979,142.14954 5.94048,-24.5297"
       id="path1824"
       inkscape:connector-curvature="0" />
    <path
       inkscape:connector-curvature="0"
       id="path1826"
       d="m 919.38188,213.79071 26.38372,3.30099 6.19638,157.07779 -2.00132,-26.73324"
       style="fill:#ff7f2a;fill-opacity:1;stroke:none;stroke-width:0.99999994px;stroke-linecap:butt;stroke-linejoin:miter;stroke-opacity:1" />
    <path
       inkscape:connector-curvature="0"
       id="path1828"
       d="m 881.41894,515.1821 21.36126,9.08051 52.72272,-84.62686 -22.93892,16.74171"
       style="fill:#ff7f2a;fill-opacity:1;stroke:none;stroke-width:0.99999994px;stroke-linecap:butt;stroke-linejoin:miter;stroke-opacity:1"
       inkscape:transform-center-x="19.706394"
       inkscape:transform-center-y="18.643761" />
    <path
       style="fill:#ff7f2a;fill-opacity:1;stroke:none;stroke-width:0.99999994px;stroke-linecap:butt;stroke-linejoin:miter;stroke-opacity:1"
       d="m 1044.1013,501.35486 -13.564,3.33116 -70.74372,-76.92078 12.47544,12.91273"
       id="path1830"
       inkscape:connector-curvature="0"
       inkscape:transform-center-y="5.8535415"
       inkscape:transform-center-x="2.351584e-005" />
    <path
       inkscape:connector-curvature="0"
       id="path1832"
       d="m 944.9015,512.64579 9.46679,-66.34036 -27.33471,66.03495 z"
       style="fill:#ff7f2a;fill-opacity:1;stroke:none;stroke-width:0.99999994px;stroke-linecap:butt;stroke-linejoin:miter;stroke-opacity:1" />
    <path
       inkscape:connector-curvature="0"
       id="path2631"
       d="m 1031.1564,519.17731 -37.57479,1.48967 -38.1709,-87.62781 z"
       style="fill:#ff7f2a;fill-opacity:1;stroke:none;stroke-width:0.99999994px;stroke-linecap:butt;stroke-linejoin:miter;stroke-opacity:1" />
    <path
       style="fill:#ff7f2a;fill-opacity:1;stroke:none;stroke-width:0.99999994px;stroke-linecap:butt;stroke-linejoin:miter;stroke-opacity:1"
       d="m 970.74348,490.48423 -14.96536,-56.21309 0.70008,61.18842 z"
       id="path2633"
       inkscape:connector-curvature="0"
       inkscape:transform-center-x="-112.14464"
       inkscape:transform-center-y="-75.551685" />
    <path
       inkscape:connector-curvature="0"
       id="path2635"
       d="m 861.65708,520.57596 -3.7744,-28.92634 70.25749,-42.43827 -2.50908,5.05835 -8.15764,10.44498"
       style="fill:#ff7f2a;fill-opacity:1;stroke:none;stroke-width:0.99999994px;stroke-linecap:butt;stroke-linejoin:miter;stroke-opacity:1" />
    <path
       inkscape:connector-curvature="0"
       id="path2052"
       style="font-style:normal;font-variant:normal;font-weight:normal;font-stretch:normal;font-size:medium;line-height:1.25;font-family:sans-serif;-inkscape-font-specification:sans-serif;font-variant-ligatures:normal;font-variant-caps:normal;font-variant-numeric:normal;font-feature-settings:normal;text-align:start;letter-spacing:0px;word-spacing:0px;writing-mode:lr-tb;text-anchor:start;fill:#000000;fill-opacity:1;stroke:none;stroke-width:1"
       d="m 374.16538,295.21378 v 24.45272 l -117.87468,43.88951 117.87468,43.88951 v 24.45272 L 233.71895,379.23083 v -31.34964 z" />
    <path
       inkscape:connector-curvature="0"
       id="path2058"
       style="font-style:normal;font-variant:normal;font-weight:normal;font-stretch:normal;font-size:medium;line-height:1.25;font-family:sans-serif;-inkscape-font-specification:sans-serif;font-variant-ligatures:normal;font-variant-caps:normal;font-variant-numeric:normal;font-feature-settings:normal;text-align:start;letter-spacing:0px;word-spacing:0px;writing-mode:lr-tb;text-anchor:start;fill:#000000;fill-opacity:1;stroke:none;stroke-width:1"
       d="M 473.62347,431.89824 V 407.44552 L 591.49815,363.55601 473.62347,319.6665 v -24.45272 l 140.44642,52.66741 v 31.34964 z" />
    <path
       inkscape:connector-curvature="0"
       id="path2055"
       style="font-style:normal;font-variant:normal;font-weight:normal;font-stretch:normal;font-size:medium;line-height:1.25;font-family:Spacetime;-inkscape-font-specification:'Spacetime, Normal';font-variant-ligatures:normal;font-variant-caps:normal;font-variant-numeric:normal;font-feature-settings:normal;text-align:start;letter-spacing:0px;word-spacing:0px;writing-mode:lr-tb;text-anchor:start;fill:#ff6600;fill-opacity:1;stroke:none;stroke-width:0.99999994"
       d="m 408.71031,427.23182 -18.16418,-54.49255 v 0 l -12.06215,-36.32836 h 18.16418 l 5.96012,18.16418 v 0 l 18.16419,54.49255 h 6.10203 l 18.16418,-54.49255 6.10203,-18.16418 h 18.16418 l -12.20406,36.32836 -18.16418,54.49255 z" />
  </g>
</svg>
